<svg width="52" height="40" viewBox="0 0 52 40" fill="none" xmlns="http://www.w3.org/2000/svg">
<path d="M45.6727 12.773C37.1694 21.3237 25.9808 26.3867 14.2328 28.6369C13.2258 25.9367 11.5476 23.3489 10.3168 21.5488C8.41476 18.8485 6.17704 16.2608 4.61064 13.3355C0.694635 6.35988 10.093 2.98458 15.3517 4.10968C17.8132 4.67223 18.8201 0.959392 16.3587 0.396842C9.08607 -1.29081 -0.536109 2.42202 0.02332 11.1978C0.247092 14.2356 2.03727 16.4858 3.71555 18.8485C5.84138 21.7738 7.96721 24.8116 9.75739 27.9618C9.98116 28.4119 10.2049 28.8619 10.5406 29.4245C7.18401 30.5496 4.1631 32.6873 3.93932 36.5126C3.60367 40.6755 9.30984 40.4505 11.7713 39.2129C14.9041 37.6377 15.6873 35.05 15.2398 32.2372C17.4775 31.7872 19.6033 31.4497 21.7292 30.8871C31.687 27.9618 41.0854 22.8989 48.4699 15.4732C50.1482 13.673 47.4629 10.9728 45.6727 12.773ZM9.6455 35.9501C8.63853 36.2876 7.51967 36.0626 8.52664 34.9375C9.19796 33.9249 10.4287 33.4748 11.5476 33.1373C11.5476 34.3749 11.1 35.3875 9.6455 35.9501Z" fill="#212127"/>
<path d="M52 36C52 37.6569 50.6569 39 49 39C47.3431 39 46 37.6569 46 36C46 34.3431 47.3431 33 49 33C50.6569 33 52 34.3431 52 36Z" fill="#CA2253"/>
</svg>
